<?xml version="1.0" encoding="UTF-8" standalone="no"?>
<!-- Created with Inkscape (http://www.inkscape.org/) -->

<svg
   width="1024"
   height="1024"
   viewBox="0 0 270.93333 270.93333"
   version="1.1"
   id="svg1"
   inkscape:version="1.3 (0e150ed6c4, 2023-07-21)"
   sodipodi:docname="MadkaDamiaNut001.svg"
   xmlns:inkscape="http://www.inkscape.org/namespaces/inkscape"
   xmlns:sodipodi="http://sodipodi.sourceforge.net/DTD/sodipodi-0.dtd"
   xmlns="http://www.w3.org/2000/svg"
   xmlns:svg="http://www.w3.org/2000/svg">
  <sodipodi:namedview
     id="namedview1"
     pagecolor="#ffffff"
     bordercolor="#000000"
     borderopacity="0.25"
     inkscape:showpageshadow="2"
     inkscape:pageopacity="0.0"
     inkscape:pagecheckerboard="0"
     inkscape:deskcolor="#d1d1d1"
     inkscape:document-units="px"
     inkscape:zoom="0.35355339"
     inkscape:cx="141.42136"
     inkscape:cy="435.57778"
     inkscape:window-width="1916"
     inkscape:window-height="1036"
     inkscape:window-x="0"
     inkscape:window-y="0"
     inkscape:window-maximized="1"
     inkscape:current-layer="layer6" />
  <defs
     id="defs1" />
  <g
     inkscape:groupmode="layer"
     id="layer3"
     inkscape:label="Leaves"
     transform="translate(3.0987702,2.1458901)">
    <path
       style="fill:#008000;stroke-width:0.264583"
       d="M 171.04874,86.222924 C 234.05149,77.803546 237.4284,56.908914 235.967,55.090805 234.50559,53.272697 175.02444,34.222713 171.04874,86.222924 Z"
       id="path3" />
    <path
       style="fill:#008000;stroke-width:0.422882"
       d="M 130.69523,106.263 C 171.62348,48.159258 189.49771,74.802517 171.62348,48.159258 153.74927,21.515997 96.598753,49.37799 130.69523,106.263 Z"
       id="path4" />
  </g>
  <g
     inkscape:label="Nut"
     inkscape:groupmode="layer"
     id="layer1">
    <ellipse
       style="fill:#784421;stroke-width:0.256368"
       id="path2"
       transform="rotate(30)"
       cx="194.63667"
       cy="68.655777"
       rx="68.01284"
       ry="87.256004" />
  </g>
  <g
     inkscape:groupmode="layer"
     id="layer6"
     inkscape:label="Lowlights">
    <path
       style="fill:#000000;fill-opacity:0.0885123;stroke-width:0.264583"
       d="m 110.71903,224.48533 c 10.24515,0.94216 5.01916,0.69382 15.6803,0.69382 6.234,0 12.468,0 18.702,0 2.00288,0 4.02284,0.26101 6.00863,0 0.12729,-0.0167 4.57694,-2.17848 4.67489,-2.23275 5.82372,-3.22628 9.35038,-8.35274 13.37784,-13.53451 3.2909,-4.23411 7.2606,-8.59554 10.2293,-13.0659 0.80885,-1.21799 1.25125,-2.64529 1.96154,-3.92327 0.55056,-0.99061 1.37277,-1.83124 1.81636,-2.87415 2.0436,-2.13746 1.22386,-5.18266 2.2329,-7.63464 1.04194,-2.53192 2.96605,-4.84169 3.25879,-7.71978 0.29503,-2.90062 -0.29662,-5.89176 0,-8.7922 0.21777,-2.12944 0.55184,-3.7613 0.55184,-5.9475 0,-4.43219 1.47367,-7.85678 -0.49045,-11.78501 -0.0789,-0.15777 0.11779,-0.39787 0,-0.52917 -0.19501,-0.21738 -0.58407,0 -0.87611,0 -0.52916,0 -1.0976,-0.20004 -1.5875,0 -5.09464,2.08036 -10.47208,5.85708 -14.95835,8.98851 -6.0527,4.22479 -12.72057,8.96627 -18.13307,13.97136 -3.21304,2.9712 -5.61588,6.71856 -8.59532,9.92395 -3.41873,3.67797 -7.36551,6.84971 -10.76632,10.54683 -0.56775,0.61723 -4.76201,5.92419 -5.30386,6.62889 -1.20042,1.59022 -2.40084,3.18043 -3.60126,4.77064 -0.17639,0.54204 -0.24084,1.13439 -0.52917,1.6261 -0.099,0.16887 -2.01285,2.02575 -2.13923,2.20048 -1.92674,1.4706 -2.09372,3.99787 -3.40216,5.82742 -0.94268,1.31812 -2.38805,2.20673 -3.41399,3.46113 -1.01104,1.23617 -1.83588,2.61166 -2.76401,3.86956 -0.30113,0.40812 -0.83447,0.6381 -1.05834,1.09321 -0.15571,0.31656 0.11156,0.72366 0,1.05834 -0.0359,0.10787 -1.00544,0.92171 -1.02261,1.06305 -0.0932,0.76778 0.0982,1.54372 0.14736,2.31559 z"
       id="path8" />
    <path
       style="fill:#000000;fill-opacity:0.0885123;stroke-width:0.264583"
       d="m 234.87621,59.113705 c -1.22549,1.662409 -2.53649,3.435744 -3.3015,5.348274 -0.0927,0.231611 0.0789,0.511704 0,0.748356 -0.0251,0.07532 -2.59759,2.974258 -2.70283,3.077061 -1.11046,1.084718 -2.68108,1.565482 -4.02419,2.343807 -1.03476,0.599638 -2.02168,1.551865 -3.17384,1.930151 -3.24372,1.065006 -6.77036,1.36774 -10.00796,2.395188 -1.86031,0.590365 -3.56146,1.730857 -5.45618,2.27497 -1.55086,0.44537 -3.11282,1.002024 -4.72003,1.204692 -0.37648,0.04747 -0.775,-0.109286 -1.13839,0 -1.32257,0.397759 -2.94948,1.026713 -4.26179,1.556134 -3.15237,1.271746 -6.07613,1.812822 -9.30652,1.148543 -0.6223,-0.127966 -0.82077,0.2686 -1.16231,-0.374176 -0.47281,-0.889818 1.45369,-1.762729 1.58394,-1.861442 1.22439,-0.927888 4.13,-3.170931 5.06782,-3.705749 1.05465,-0.601443 2.27842,-0.858853 3.34999,-1.42961 1.00648,-0.536088 1.82483,-1.398606 2.85959,-1.87784 1.01518,-0.470173 2.16291,-0.579337 3.22232,-0.938927 2.30492,-0.782346 4.63442,-1.494925 6.91769,-2.338369 1.89811,-0.701167 3.86113,-1.686078 5.77728,-2.448391 1.05903,-0.421322 1.42031,-1.367612 2.34998,-1.916117 0.34404,-0.202986 0.78096,-0.195983 1.13847,-0.374177 2.08012,-1.036788 0.24878,-0.666893 2.80247,-1.629627 2.26291,-0.853106 4.9239,-1.69664 7.29125,-2.533028 0.80743,-0.285266 1.57177,-0.311785 2.3382,-0.679257 0.61164,-0.293256 1.63655,0.228164 2.27763,0 0.16895,-0.06013 0.19496,-0.3928 0.37418,-0.386545 0.65324,0.02281 1.26982,0.310718 1.90473,0.466079 z"
       id="path9" />
    <path
       style="fill:#000000;fill-opacity:0.0885123;stroke-width:0.264583"
       d="m 175.68478,58.908756 c -2.83252,-0.225084 -5.46056,0.939178 -8.1464,1.627444 -1.95154,0.500097 -3.97648,0.695267 -5.91286,1.25118 -1.63457,0.469265 -3.34235,1.824321 -4.76421,2.288331 -0.36907,0.120441 -0.78744,-0.09172 -1.16467,0 -0.70808,0.172173 -2.66154,1.509406 -3.40012,1.878695 -0.21264,0.106323 -0.53193,-0.153799 -0.71323,0 -0.0731,0.06203 0.0693,0.221412 0,0.287634 -0.0712,0.06801 -0.44677,-0.05403 -0.54037,0 -0.34164,0.197207 -0.43561,0.521012 -0.76068,0.735373 -1.05675,0.696841 -2.39846,0.777639 -3.36949,1.746054 -1.16729,1.164137 0.33463,-0.169426 -0.71337,0.352549 -1.06986,0.532863 -2.02565,2.12022 -2.47621,2.843213 -0.0825,0.132397 -1.17569,0.715481 -0.93014,0.984043 0.37668,0.411986 7.56595,-0.775319 8.29395,-0.840951 0.83083,-0.0749 1.67224,0.0799 2.50261,0 1.63077,-0.156927 2.93817,-0.444074 4.55444,-0.444074 0.77102,0 2.90823,0.379648 3.41843,0.204081 3.46766,-1.193271 6.9231,-3.482478 10.0139,-5.357389 0.91992,-0.558031 2.3119,-0.789895 3.06634,-1.533809 0.19859,-0.195818 0.17589,-0.552235 0.37418,-0.748355 0.68089,-0.673441 1.71126,-1.03292 2.29471,-1.908101 0.13814,-0.207203 1.47384,-3.595947 0.3972,-3.623016 -0.67988,-0.01709 -1.34934,0.1714 -2.02401,0.257098 z"
       id="path10" />
  </g>
  <g
     inkscape:groupmode="layer"
     id="layer5"
     inkscape:label="Highlights">
    <path
       style="fill:#ffffff;stroke-width:0.264583;fill-opacity:0.08851228"
       d="m 141.74419,84.131662 c -4.28249,0.238758 -8.42961,2.221844 -12.4992,3.462086 -1.97509,0.601922 -4.0236,0.973103 -5.95736,1.696861 -5.00516,1.8733 -9.69747,4.700862 -13.69311,8.237296 -1.81595,1.607249 -3.32275,3.545645 -5.15931,5.129315 -0.89117,0.76845 -1.88367,1.41137 -2.80597,2.14219 -2.54409,2.01591 -5.153241,4.48726 -7.395506,6.75301 -1.873967,1.89359 -3.310133,4.25055 -5.180885,6.14052 -0.479333,0.48426 -1.075037,0.83926 -1.581656,1.29489 -3.884805,3.49386 -7.011109,7.9849 -8.921321,12.81415 -0.92166,2.33007 -1.271624,2.41253 -1.704774,4.9642 -0.693129,4.0832 -0.97894,8.54118 -1.387657,12.67948 -0.285195,2.8876 -0.557377,5.5071 -0.06275,8.30382 0.1388,0.78481 0.122687,1.00892 0.79044,1.3407 0.171024,0.085 0.246713,0.42373 0.520348,0.26127 4.439608,-2.63595 6.834473,-7.73026 10.021691,-11.63576 1.29775,-1.59021 2.851404,-2.96155 4.130125,-4.5671 0.676788,-0.84976 4.879052,-7.48067 5.243576,-8.11745 2.610885,-4.56086 3.5716,-7.37765 6.495679,-11.16012 1.46492,-1.89495 3.04061,-3.7103 4.72204,-5.41607 0.64336,-0.65267 1.43991,-1.14171 2.08197,-1.79566 1.90851,-1.9439 3.47216,-4.15537 5.4284,-6.07972 1.59016,-1.56425 3.18891,-2.46717 4.87123,-3.84951 1.17577,-0.96612 2.17916,-2.1356 3.38782,-3.06023 0.95472,-0.73037 2.13418,-1.12769 3.09715,-1.84713 0.31571,-0.23587 0.53387,-0.58138 0.82626,-0.84562 1.71787,-1.552507 3.59697,-2.996814 5.39552,-4.447461 0.33115,-0.709853 1.18876,-0.43861 1.67796,-0.824738 0.26198,-0.20678 0.30826,-0.614995 0.56802,-0.824547 0.81901,-0.660681 2.00284,-1.008751 2.85844,-1.679515 1.07287,-0.841099 1.92193,-1.99087 2.76717,-3.031744 0.28421,-0.34999 0.79836,-0.463084 1.07831,-0.816488 0.25294,-0.319304 0.32256,-0.752792 0.54661,-1.092996 0.20955,-0.318191 0.6809,-0.452771 0.80257,-0.813816 0.0626,-0.185735 0.45568,-2.836979 0.26458,-2.936973 -0.37895,-0.198289 -0.81761,-0.251428 -1.22641,-0.37714 z"
       id="path7" />
    <path
       style="fill:#ffffff;fill-opacity:0.0885123;stroke-width:0.264583"
       d="m 153.88182,42.368824 c -2.06165,-0.343043 -3.73885,0.748022 -5.67612,1.221706 -0.90987,0.222469 -1.77613,0.626305 -2.7008,0.775747 -0.38348,0.06198 -0.78447,-0.07629 -1.16535,0 -2.45773,0.492303 -4.88316,2.444594 -6.88901,3.770218 -0.72931,0.481986 -1.19658,1.371338 -1.89651,1.896284 -0.22312,0.167336 -0.57396,0.156533 -0.74836,0.374177 -0.35222,0.439573 -0.47127,1.025704 -0.76061,1.508995 -0.55694,0.930246 -1.33412,1.747247 -1.91038,2.692082 -1.27172,2.085105 -3.094,6.905467 -3.50218,9.232493 -0.0662,0.37746 0.0731,0.773477 0,1.149673 -0.0727,0.374255 -0.65561,1.154244 -0.74835,1.525211 -0.15126,0.60501 0.10292,1.255811 0,1.870888 -0.29146,1.741805 -0.7506,3.449711 -0.7506,5.20764 0,0.306366 -0.073,-0.62157 0,-0.919104 0.20449,-0.833025 0.7035,-2.374173 1.12254,-3.111617 0.17942,-0.315761 0.56958,-0.475736 0.74835,-0.791871 0.20518,-0.362834 0.19472,-0.816975 0.37418,-1.193194 0.95609,-2.004293 2.54272,-4.036743 3.79846,-5.838743 0.64407,-0.924259 4.65963,-5.198025 5.68176,-5.709095 0.53577,-0.26788 1.31509,-0.33356 1.86619,-0.743661 1.09461,-0.814547 3.70923,-2.509682 4.61672,-3.409765 0.19801,-0.1964 0.15071,-0.58148 0.37417,-0.748356 0.32501,-0.24271 0.82875,-0.146724 1.1522,-0.391511 0.45952,-0.347766 0.368,-1.136587 0.77332,-1.546244 0.20001,-0.202157 0.52439,-0.228095 0.76062,-0.386429 0.0721,-0.04833 1.76485,-2.443893 1.87856,-2.676578 0.21459,-0.439124 0.51873,-1.037463 0.74835,-1.496708 0.10671,-0.213421 -0.14552,-0.526733 0,-0.715833 0.26703,-0.347009 0.95247,0.02011 1.23702,-0.274069 0.0718,-0.07421 0,-0.206478 0,-0.309716 0.53861,-0.320873 1.07722,-0.641747 1.61583,-0.96262 z"
       id="path11" />
    <path
       style="fill:#ffffff;fill-opacity:0.0885123;stroke-width:0.264583"
       d="m 217.67287,53.94852 c -3.00931,0.888555 -6.2128,0.451726 -9.24595,0.834739 -3.94289,0.497888 -8.13059,1.918152 -11.79052,3.486753 -2.32725,0.997432 -3.15293,1.212985 -5.17773,2.708606 -0.0306,0.02262 -1.52715,0.738947 -1.56114,0.77293 -0.72225,0.72214 -0.73615,1.845606 -1.13488,2.656374 -0.54819,1.11465 -2.11763,3.595889 -0.46149,4.370401 0.44812,0.209568 1.72126,0.588608 2.34555,0.374176 1.86384,-0.640188 3.89412,-1.956178 5.41618,-3.092545 1.7478,-1.304904 4.24066,-1.753349 5.93826,-3.093519 0.41534,-0.327887 0.70826,-0.7933 1.12254,-1.122532 0.0165,-0.01312 1.50981,-0.738142 1.52535,-0.748355 1.94235,-1.27649 3.24494,-1.848509 5.28459,-2.87981 1.64742,-0.832982 -0.41749,0.048 0.38737,-0.756875 0.009,-0.0093 0.71402,0.0089 0.73299,0 0.42816,-0.201586 0.66337,-0.792943 1.08718,-1.00552 1.64909,-0.827156 3.33707,-1.881587 5.5317,-2.504823 z"
       id="path12" />
  </g>
  <g
     inkscape:groupmode="layer"
     id="layer4"
     inkscape:label="Eyes">
    <ellipse
       style="fill:#000000;fill-opacity:0.25;stroke-width:0.264583"
       id="path13"
       cx="132.81465"
       cy="146.52151"
       rx="9.2604322"
       ry="11.796303" />
    <ellipse
       style="fill:#000000;fill-opacity:0.384643;stroke-width:0.264583"
       id="path14"
       cx="160.17648"
       cy="122.35388"
       rx="10.418945"
       ry="8.8276291" />
    <ellipse
       style="fill:#000000;fill-opacity:0.34;stroke-width:0.264583"
       id="path15"
       cx="123.11996"
       cy="122.75038"
       rx="9.5719995"
       ry="6.5763998" />
  </g>
</svg>
